HIERARCHY
ROOT SpineBase
{
  OFFSET 0.000000 0.000000 0.000000
  CHANNELS 6 Xposition Yposition Zposition Zrotation Xrotation Yrotation
  JOINT SpineMid
  {
    OFFSET 0.000000 32.065602 0.000000
    CHANNELS 3 Zrotation Xrotation Yrotation
    JOINT SpineShoulder
    {
      OFFSET 0.027178 24.046537 -0.722456
      CHANNELS 3 Zrotation Xrotation Yrotation
      JOINT Neck
      {
        OFFSET -0.011521 7.975131 -0.432621
        CHANNELS 3 Zrotation Xrotation Yrotation
        JOINT Head
        {
          OFFSET -0.834508 14.101319 6.783011
          CHANNELS 3 Zrotation Xrotation Yrotation
          End Site
          {
            OFFSET 0 0 0
          }
        }
      }
      JOINT ShoulderLeft
      {
        OFFSET 1.892095 -5.843820 -13.412629
        CHANNELS 3 Zrotation Xrotation Yrotation
        JOINT ElbowLeft
        {
          OFFSET 5.156463 -28.983416 -7.015104
          CHANNELS 3 Zrotation Xrotation Yrotation
          JOINT WristLeft
          {
            OFFSET 8.276505 -24.197892 0.960899
            CHANNELS 3 Zrotation Xrotation Yrotation
            JOINT HandLeft
            {
              OFFSET -0.794889 -7.556119 4.118411
              CHANNELS 3 Zrotation Xrotation Yrotation
              JOINT HandTipLeft
              {
                OFFSET 1.956022 -7.346291 1.999059
                CHANNELS 3 Zrotation Xrotation Yrotation
                End Site
                {
                  OFFSET 0 0 0
                }
              }
              JOINT ThumbLeft
              {
                OFFSET -5.670958 0.307350 2.586344
                CHANNELS 3 Zrotation Xrotation Yrotation
                End Site
                {
                  OFFSET 0 0 0
                }
              }
            }
          }
        }
      }
      JOINT ShoulderRight
      {
        OFFSET 9.770798 -6.482680 14.735788
        CHANNELS 3 Zrotation Xrotation Yrotation
        JOINT ElbowRight
        {
          OFFSET -18.517728 -28.019751 -2.119168
          CHANNELS 3 Zrotation Xrotation Yrotation
          JOINT WristRight
          {
            OFFSET 3.512084 -22.483775 8.185339
            CHANNELS 3 Zrotation Xrotation Yrotation
            JOINT HandRight
            {
              OFFSET 1.964024 -5.579802 4.307144
              CHANNELS 3 Zrotation Xrotation Yrotation
              JOINT HandTipRight
              {
                OFFSET 0.814630 -3.743064 -0.937129
                CHANNELS 3 Zrotation Xrotation Yrotation
                End Site
                {
                  OFFSET 0 0 0
                }
              }
              JOINT ThumbRight
              {
                OFFSET -2.474067 0.817440 -0.732463
                CHANNELS 3 Zrotation Xrotation Yrotation
                End Site
                {
                  OFFSET 0 0 0
                }
              }
            }
          }
        }
      }
    }
  }
  JOINT HipLeft
  {
    OFFSET -0.965329 1.584399 -8.558685
    CHANNELS 3 Zrotation Xrotation Yrotation
    JOINT KneeLeft
    {
      OFFSET 9.804753 -37.967780 6.225604
      CHANNELS 3 Zrotation Xrotation Yrotation
      JOINT AnkleLeft
      {
        OFFSET -2.428862 -40.542760 5.992013
        CHANNELS 3 Zrotation Xrotation Yrotation
        JOINT FootLeft
        {
          OFFSET 10.633877 -3.256448 -6.034543
          CHANNELS 3 Zrotation Xrotation Yrotation
          End Site
          {
            OFFSET 0 0 0
          }
        }
      }
    }
  }
  JOINT HipRight
  {
    OFFSET 1.629095 -0.256689 1.407426
    CHANNELS 3 Zrotation Xrotation Yrotation
    JOINT KneeRight
    {
      OFFSET -0.356450 -38.713441 5.993519
      CHANNELS 3 Zrotation Xrotation Yrotation
      JOINT AnkleRight
      {
        OFFSET 1.591380 -40.690703 7.349949
        CHANNELS 3 Zrotation Xrotation Yrotation
        JOINT FootRight
        {
          OFFSET 9.409826 -5.088086 -4.478652
          CHANNELS 3 Zrotation Xrotation Yrotation
          End Site
          {
            OFFSET 0 0 0
          }
        }
      }
    }
  }
}
MOTION
Frames: 11
Frame Time: 0.033333
-17.864877 77.097592 327.107197 2.314312 -2.229193 -60.877027 -0.093562 -0.173201 60.991881 -0.721272 -0.789371 0.028823 -19.297600 4.795599 9.959163 0.000000 0.000000 0.000000 -4.040517 8.402064 1.812345 30.632032 -17.034130 1.324852 31.889462 -11.271611 40.669927 -17.404647 11.428362 -25.282072 0.000000 0.000000 0.000000 0.000000 0.000000 0.000000 -10.207214 3.005681 1.057151 22.400673 -2.279958 4.207971 -13.422647 3.091878 -4.178103 -0.000000 0.000000 0.000000 0.000000 0.000000 0.000000 0.000000 0.000000 0.000000 -8.486946 3.925328 63.151762 -10.954131 -7.256214 -4.639729 8.258792 2.947318 9.154136 0.000000 0.000000 0.000000 24.468374 15.420052 61.802281 -26.323082 10.016834 -0.680285 -1.702046 6.210761 -0.253451 0.000000 0.000000 0.000000
-14.924276 77.253134 329.259046 3.180121 -3.336370 -58.318674 -0.186760 -0.124416 58.507394 -0.667525 -0.822780 0.061529 -27.499495 3.262797 14.011961 0.000000 0.000000 0.000000 -7.684930 11.043676 3.188740 40.722940 -22.329618 3.380161 33.391783 -7.143949 44.565149 -19.467838 6.568164 -27.275139 0.000000 0.000000 0.000000 0.000000 0.000000 0.000000 -11.149792 4.041109 1.219171 33.392488 -2.248591 8.314734 -24.096736 5.368716 -7.275673 -0.707189 0.423288 0.271906 0.000000 0.000000 0.000000 0.000000 0.000000 0.000000 -14.578593 4.410904 61.565014 -10.200131 -12.063736 -6.374908 9.117331 4.033468 10.720714 0.000000 0.000000 0.000000 21.290756 14.297687 59.567251 -21.646988 3.472425 -1.142534 -4.051126 12.065700 1.022935 0.000000 0.000000 0.000000
-11.972478 77.602160 331.728206 3.551447 -4.266848 -56.372651 -0.173547 -0.158914 56.615863 -0.565801 -0.893919 0.079511 -35.071373 0.158989 17.725177 0.000000 0.000000 0.000000 -12.088742 13.469547 5.208289 53.110386 -25.924191 6.605397 30.801227 -9.734568 49.884685 -10.330232 6.278467 -31.508256 0.000000 0.000000 0.000000 0.000000 0.000000 0.000000 -11.635050 5.065814 1.402622 43.963966 -1.443069 12.194032 -34.315543 8.034919 -9.841943 -1.025303 0.427019 0.353820 0.000000 0.000000 0.000000 0.000000 0.000000 0.000000 -19.848136 5.729664 60.809530 -10.137189 -15.946856 -8.239535 9.950932 4.394399 12.472746 0.000000 0.000000 0.000000 17.756519 14.986599 57.624889 -17.717875 -2.172256 -1.217684 -16.030431 4.710456 -10.150274 0.000000 0.000000 0.000000
-9.404699 78.041492 334.195085 3.406633 -5.071653 -54.585691 -0.163030 -0.299894 54.850016 -0.419807 -0.981022 0.077769 -40.173914 -3.655384 20.092815 0.000000 0.000000 0.000000 -16.714755 15.446348 7.705930 65.241233 -27.963861 10.068235 31.899146 -16.102735 59.421888 -1.413970 14.515769 -39.998952 0.000000 0.000000 0.000000 0.000000 0.000000 0.000000 -11.568231 6.037495 1.586496 52.490499 -0.248521 15.185064 -42.576987 10.478264 -11.574862 -1.342578 0.427572 0.434915 0.000000 0.000000 0.000000 0.000000 0.000000 0.000000 -24.387194 7.323534 60.332931 -9.834540 -19.028166 -9.881693 10.473947 4.175501 14.168734 0.000000 0.000000 0.000000 14.398424 16.585402 55.699739 -15.493728 -7.158194 -1.097967 -21.583642 2.059463 -16.392827 0.000000 0.000000 0.000000
-7.167889 77.627358 336.354745 2.487390 -5.319702 -53.565791 0.022377 -0.251466 53.768812 -0.306866 -1.047422 0.055799 -41.588251 -6.138680 20.717846 0.000000 0.000000 0.000000 -21.325464 16.520459 10.425486 76.971936 -28.358729 13.457700 31.924110 -28.234167 71.248235 26.974577 12.700356 -58.294159 0.000000 0.000000 0.000000 0.000000 0.000000 0.000000 -10.954642 6.465807 1.670517 58.469058 0.873207 17.164268 -48.400590 12.318432 -12.593095 -1.636924 0.427796 0.510177 0.000000 0.000000 0.000000 0.000000 0.000000 0.000000 -27.036541 9.210962 60.688186 -10.346153 -21.311651 -11.501433 10.969824 3.940017 15.957598 0.000000 0.000000 0.000000 13.010003 19.284363 54.386355 -14.955166 -10.942136 -0.981498 -23.044450 2.603692 -16.553996 0.000000 0.000000 0.000000
-4.982626 76.744629 338.473924 0.925941 -5.015116 -52.062579 0.189818 -0.182616 52.139611 -0.167534 -1.089323 0.012023 -43.917603 -8.615146 21.877466 0.000000 0.000000 0.000000 -25.754827 16.322099 13.042220 85.716830 -27.344836 15.214989 29.045691 -44.351949 79.596165 56.283592 3.877882 -72.416611 0.000000 0.000000 0.000000 0.000000 0.000000 0.000000 -9.732779 6.293124 1.646494 61.975178 1.643148 18.260866 -51.826188 13.427140 -13.114681 -1.893534 0.423155 0.574735 0.000000 0.000000 0.000000 0.000000 0.000000 0.000000 -28.236886 10.772494 60.273276 -9.934860 -21.949042 -12.373688 11.271928 2.664238 17.692079 0.000000 0.000000 0.000000 14.108637 21.892320 52.398144 -16.312849 -12.781983 -1.217827 -19.587983 6.058269 -10.992406 0.000000 0.000000 0.000000
-3.285502 75.888742 340.185426 -1.245173 -4.252712 -50.744747 0.125124 -0.160156 50.664564 -0.235339 -1.041006 -0.061453 -43.180423 -10.505798 21.603833 0.000000 0.000000 0.000000 -28.010229 14.859757 14.569712 90.159680 -25.721450 15.082806 13.420773 -56.124890 70.330829 74.737295 1.874173 -70.710769 0.000000 0.000000 0.000000 0.000000 0.000000 0.000000 -7.504136 5.424808 1.524204 63.044657 1.911340 18.568336 -52.857182 13.743707 -13.274201 -2.076047 0.414060 0.619318 0.000000 0.000000 0.000000 0.000000 0.000000 0.000000 -27.519660 11.911100 59.547822 -9.064352 -20.832703 -12.414705 11.281304 0.674587 19.510002 0.000000 0.000000 0.000000 16.970667 24.845941 50.336096 -19.116216 -13.663513 -1.801692 -13.111120 13.319317 -0.414590 0.000000 0.000000 0.000000
-0.661941 75.014057 342.561618 -2.777166 -3.707936 -49.067123 0.055382 -0.150400 48.895130 -0.194509 -1.025775 -0.111450 -43.302133 -13.954556 20.812883 0.000000 0.000000 0.000000 -31.224160 13.370115 16.120917 94.377549 -24.326991 14.785650 1.849136 -59.949403 60.687759 82.743213 2.339218 -67.979619 0.000000 0.000000 0.000000 0.000000 0.000000 0.000000 -6.009349 4.811580 1.460422 61.212373 1.532373 17.968291 -51.021454 13.092503 -13.046131 -2.158264 0.405311 0.638307 0.000000 0.000000 0.000000 0.000000 0.000000 0.000000 -28.296835 11.557411 57.964244 -6.891361 -19.415309 -12.056297 12.122540 -1.671441 21.280249 0.000000 0.000000 0.000000 18.323615 26.205154 48.263756 -21.123064 -14.042490 -2.499259 -10.427748 17.749932 8.616309 0.000000 0.000000 0.000000
2.146980 74.503638 344.975174 -4.376458 -3.092081 -47.624317 0.137809 -0.133858 47.371330 -0.162029 -1.037445 -0.160946 -44.015016 -15.991098 20.815199 0.000000 0.000000 0.000000 -33.540068 11.988355 17.211776 98.079642 -23.865810 14.768422 -10.373231 -61.663927 50.035469 83.816818 1.115757 -61.772126 0.000000 0.000000 0.000000 0.000000 0.000000 0.000000 -4.541687 4.263951 1.420491 61.094666 1.491039 17.915061 -50.873070 13.048720 -13.021052 -2.325718 0.392656 0.678190 0.000000 0.000000 0.000000 0.000000 0.000000 0.000000 -29.303834 10.689533 56.407214 -3.835057 -18.204703 -11.234028 12.694314 -3.890440 22.730635 0.000000 0.000000 0.000000 19.512526 26.426194 46.559924 -22.578102 -13.197556 -3.168495 -7.219294 21.348105 16.147097 0.000000 0.000000 0.000000
4.689528 74.360173 346.992552 -5.542734 -2.519770 -46.686690 0.000319 -0.162022 46.394876 -0.178517 -1.006228 -0.201829 -44.662947 -16.915578 21.034593 0.000000 0.000000 0.000000 -34.349072 10.603739 17.416027 99.608829 -23.566524 14.266421 -19.286819 -62.063723 41.681594 84.289619 -2.305131 -56.065274 0.000000 0.000000 0.000000 0.000000 0.000000 0.000000 -3.265038 3.585960 1.374636 60.935154 1.435064 17.853102 -50.688943 12.999662 -12.986325 -2.469021 0.379207 0.711691 0.000000 0.000000 0.000000 0.000000 0.000000 0.000000 -30.097834 8.926880 54.713511 -0.490575 -16.369461 -9.881789 13.217139 -5.981866 23.598367 0.000000 0.000000 0.000000 20.698488 26.900362 45.413676 -25.351725 -11.830365 -4.094479 -4.851970 22.802787 22.101236 0.000000 0.000000 0.000000
7.266031 74.225291 349.146921 -7.397693 -1.932470 -45.227757 0.164369 -0.086251 44.872239 -0.133014 -0.998022 -0.254434 -44.698437 -17.368593 21.413898 0.000000 0.000000 0.000000 -34.867988 9.734958 17.901343 102.461847 -23.390238 14.708148 -20.297328 -64.109625 41.692445 83.328046 -12.593659 -51.849759 0.000000 0.000000 0.000000 0.000000 0.000000 0.000000 -1.652517 3.065392 1.369626 60.951482 1.430720 17.840461 -50.676783 12.995457 -12.984671 -2.636818 0.361336 0.750394 0.000000 0.000000 0.000000 0.000000 0.000000 0.000000 -30.954218 8.058735 52.987210 3.480127 -15.821912 -8.434764 12.870462 -7.404219 24.514167 0.000000 0.000000 0.000000 22.019868 27.622726 43.645651 -26.610449 -11.499301 -4.731323 -4.112947 23.424615 26.629496 0.000000 0.000000 0.000000
